<svg viewBox="0 0 200 200" fill="none" xmlns="http://www.w3.org/2000/svg">
    <circle cx="100" cy="100" r="62" transform="rotate(60 100 100)" stroke="#23A0D6" stroke-width="8"/>
    <circle cx="100" cy="100" r="69" transform="rotate(60 100 100)" stroke="#1889B9" stroke-width="8"/>
    <circle cx="100" cy="100" r="17.5" transform="rotate(60 100 100)" stroke="#23A0D6" stroke-width="8"/>
    <line x1="116.424" y1="90.6529" x2="151.931" y2="70.1529" stroke="#23A0D6" stroke-width="7"/>
    <line x1="48.0083" y1="130.153" x2="83.5154" y2="109.653" stroke="#23A0D6" stroke-width="7"/>
    <line x1="130.153" y1="151.431" x2="109.653" y2="115.924" stroke="#23A0D6" stroke-width="7"/>
    <line x1="91.1529" y1="83.8814" x2="70.6529" y2="48.3744" stroke="#23A0D6" stroke-width="7"/>
    <path d="M17.5 98.5C19 92 25 87 29 85L28 97C29 87.5 16 106.5 17.5 98.5Z" fill="#1889B9" stroke="#1889B9"/>
    <path d="M44 160.5C40 155.5 40.5 147 41 143L49 151.5C43 145 49 167 44 160.5Z" fill="#1889B9" stroke="#1889B9"/>
    <path d="M35 48C40 43.5 49 43 53.5 43.5L44.5 53.5C51 45.5 29.5 53.5 35 48Z" fill="#1889B9" stroke="#1889B9"/>
    <path d="M92 17.5C98 19 104 25 106 28.5L94 28C103 28.5 84 16 92 17.5Z" fill="#1889B9" stroke="#1889B9"/>
    <path d="M155 38.5C158.5 43.5 157.5 52.5 156.5 56.5L149 47C155 54.5 150 32 155 38.5Z" fill="#1889B9" stroke="#1889B9"/>
    <path d="M182 91C181.6 97 175 103.5 172 106L172 94C172 103.5 182.5 83 182 91Z" fill="#1889B9" stroke="#1889B9"/>
    <path d="M171 141.5C166 146 158 147 154 147L161.5 138C156 145 176.5 135 171 141.5Z" fill="#1889B9" stroke="#1889B9"/>
    <path d="M109 182C102.6 181.6 96 175 94 172L106 172C96.5 172 117 182.5 109 182Z" fill="#1889B9" stroke="#1889B9"/>
</svg>