<svg viewBox="0 0 200 200" fill="none" xmlns="http://www.w3.org/2000/svg">
    <circle cx="99.7199" cy="99.7199" r="62" transform="rotate(60 99.7199 99.7199)" stroke="#23A0D6" stroke-width="8"/>
    <circle cx="99.7198" cy="99.7199" r="69" transform="rotate(60 99.7198 99.7199)" stroke="#1889B9" stroke-width="8"/>
    <circle cx="99.9029" cy="99.0368" r="17.5" transform="rotate(60 99.9029 99.0368)" stroke="#23A0D6" stroke-width="8"/>
    <line x1="116.424" y1="90.6529" x2="151.931" y2="70.1529" stroke="#23A0D6" stroke-width="7"/>
    <line x1="48.0083" y1="130.153" x2="83.5154" y2="109.653" stroke="#23A0D6" stroke-width="7"/>
    <line x1="130.153" y1="151.431" x2="109.653" y2="115.924" stroke="#23A0D6" stroke-width="7"/>
    <line x1="91.1529" y1="83.8814" x2="70.6529" y2="48.3744" stroke="#23A0D6" stroke-width="7"/>
    <path d="M17.692 98.6853C18.8891 92.386 25.9485 86.9664 29.3286 85.0441L27.8151 96.9482C29.0133 87.5241 16.1958 106.559 17.692 98.6853Z" fill="#1889B9" stroke="#1889B9"/>
    <path d="M44.2455 160.669C40.1667 155.721 40.5121 146.828 41.1947 143L49.3811 151.774C42.9002 144.828 49.344 166.853 44.2455 160.669Z" fill="#1889B9" stroke="#1889B9"/>
    <path d="M35.2922 48.0819C39.9007 43.6236 48.7933 43.2629 52.6635 43.6398L44.5662 52.4961C50.9766 45.4849 29.5316 53.6547 35.2922 48.0819Z" fill="#1889B9" stroke="#1889B9"/>
    <path d="M91.8995 17.2093C98.2261 18.2554 103.809 25.2903 105.81 28.677L93.8713 27.4617C103.322 28.4238 83.9913 15.9016 91.8995 17.2093Z" fill="#1889B9" stroke="#1889B9"/>
    <path d="M154.936 38.4775C158.684 43.6804 157.682 52.6054 156.713 56.4175L149.104 47.1377C155.128 54.4842 150.25 31.974 154.936 38.4775Z" fill="#1889B9" stroke="#1889B9"/>
    <path d="M182 90.8965C181.6 97.2965 175.167 103.563 172 105.896L172 93.8965C172 103.396 182.5 82.8965 182 90.8965Z" fill="#1889B9" stroke="#1889B9"/>
    <path d="M171.333 141.4C167.152 146.263 158.241 147.378 154.307 147.328L161.548 137.759C155.816 145.335 176.559 135.323 171.333 141.4Z" fill="#1889B9" stroke="#1889B9"/>
    <path d="M109 182C102.6 181.6 96.3333 175.167 94 172L106 172C96.5 172 117 182.5 109 182Z" fill="#1889B9" stroke="#1889B9"/>
</svg>
