<?xml version="1.0" standalone="no"?>
<!DOCTYPE svg PUBLIC "-//W3C//DTD SVG 20010904//EN"
 "http://www.w3.org/TR/2001/REC-SVG-20010904/DTD/svg10.dtd">
<svg version="1.0" xmlns="http://www.w3.org/2000/svg"
 width="700.000000pt" height="700.000000pt" viewBox="0 0 700.000000 700.000000"
 preserveAspectRatio="xMidYMid meet">
<metadata>
Created by potrace 1.11, written by Peter Selinger 2001-2013
</metadata>
<g transform="translate(0.000000,700.000000) scale(0.100000,-0.100000)"
fill="#000000" stroke="none">
<path d="M3146 6404 c-9 -8 -16 -21 -16 -29 0 -16 57 -89 138 -175 58 -62 101
-125 92 -133 -3 -3 -36 -7 -75 -11 -486 -40 -946 -216 -1341 -512 l-71 -54
-94 2 c-175 3 -344 -31 -453 -90 -63 -35 -136 -101 -141 -129 -7 -39 17 -46
123 -39 291 20 272 20 272 1 0 -15 -44 -81 -97 -145 -182 -220 -366 -581 -447
-875 -15 -55 -34 -123 -42 -151 -12 -45 -20 -55 -70 -88 -76 -50 -211 -190
-253 -261 -57 -95 -83 -191 -65 -239 14 -35 71 -9 157 71 59 55 156 133 166
133 4 0 8 -69 8 -152 0 -185 8 -286 34 -438 51 -297 143 -561 281 -809 32 -57
58 -106 58 -108 0 -2 5 -9 11 -16 5 -7 32 -45 58 -85 43 -65 48 -78 41 -107
-15 -65 -8 -273 11 -361 22 -100 68 -199 115 -248 36 -38 49 -42 74 -26 12 8
15 39 16 173 1 164 7 221 23 215 5 -2 46 -37 92 -79 306 -280 650 -473 1044
-588 113 -32 358 -78 455 -85 21 -2 41 -16 72 -51 170 -194 346 -297 511 -299
86 -1 86 40 -1 123 -31 30 -83 79 -115 110 -62 59 -81 86 -73 100 3 5 36 12
73 15 60 6 194 26 278 41 146 27 359 95 525 168 298 132 544 301 781 537 114
113 118 116 165 118 153 9 339 62 436 124 81 53 138 114 138 150 0 45 -41 48
-214 13 -135 -26 -175 -29 -182 -12 -3 8 8 39 25 68 190 337 287 604 346 944
2 17 8 59 11 94 l7 64 101 101 c151 151 234 291 251 422 15 120 -33 137 -122
42 -117 -125 -191 -198 -201 -198 -14 0 -20 21 -27 100 -3 36 -8 76 -10 90 -2
14 -7 45 -10 70 -43 334 -196 721 -410 1041 -54 80 -90 144 -88 155 11 66 13
101 14 199 0 120 -16 208 -55 296 -47 108 -108 150 -134 94 -7 -14 -14 -69
-17 -123 -8 -147 -15 -214 -23 -228 -5 -9 -25 4 -67 43 -193 176 -373 301
-605 417 -143 71 -399 169 -500 190 -14 3 -54 12 -90 20 -36 8 -81 17 -100 20
-19 3 -46 8 -59 10 -13 3 -46 8 -75 11 -28 3 -64 8 -81 10 -16 2 -33 4 -36 4
-4 1 -25 25 -47 54 -119 154 -256 258 -387 291 -74 20 -90 20 -109 0z m595
-881 c521 -70 970 -314 1301 -705 65 -78 152 -197 147 -202 -6 -6 -208 -124
-485 -284 -144 -83 -277 -160 -295 -171 -19 -12 -41 -24 -49 -28 -8 -4 -58
-32 -110 -62 -163 -96 -145 -92 -191 -38 -161 188 -421 279 -689 243 -30 -5
-62 -11 -70 -16 -8 -4 -27 -10 -42 -14 -25 -6 -30 0 -86 97 -33 56 -73 125
-88 153 -16 28 -129 223 -251 435 -123 211 -224 388 -225 393 -4 11 7 17 92
55 147 66 398 133 553 147 34 3 63 7 65 9 9 9 335 0 423 -12z m-1214 -555 c78
-134 150 -259 161 -278 11 -19 52 -91 92 -160 40 -69 84 -145 98 -170 13 -25
28 -49 32 -55 4 -5 18 -28 30 -50 12 -22 35 -63 51 -91 l29 -52 -34 -25 c-45
-35 -120 -136 -161 -218 -95 -187 -103 -364 -30 -615 6 -18 -19 -35 -212 -146
-120 -69 -306 -176 -413 -238 -107 -62 -208 -121 -225 -130 -16 -10 -73 -42
-125 -72 -52 -30 -105 -60 -117 -67 -21 -10 -24 -7 -56 62 -68 145 -119 306
-151 472 -26 136 -27 154 -30 345 -4 205 12 344 59 531 107 427 354 811 695
1079 112 89 153 119 161 119 4 1 69 -108 146 -241z m2865 -748 c37 -102 79
-255 94 -345 8 -49 18 -101 21 -115 3 -14 6 -113 8 -220 4 -285 -31 -489 -128
-750 -90 -244 -256 -505 -444 -695 -122 -124 -309 -274 -323 -259 -4 5 -104
176 -221 379 -117 204 -259 450 -316 549 -57 98 -103 182 -101 186 2 5 26 33
54 62 106 112 160 215 198 376 22 95 12 289 -18 362 -6 15 26 35 436 269 18
10 159 92 313 181 154 89 296 171 315 181 l35 19 28 -62 c16 -35 38 -88 49
-118z m-1802 -224 c74 -13 180 -69 237 -127 167 -168 188 -428 49 -614 -71
-94 -172 -160 -281 -183 -44 -9 -162 -8 -210 2 -62 14 -157 67 -210 117 -196
185 -200 482 -10 675 114 115 253 158 425 130z m-428 -1133 c183 -90 345 -101
587 -41 16 4 19 -1 321 -527 10 -16 66 -113 125 -215 125 -216 148 -256 188
-327 l28 -53 -73 -33 c-193 -89 -426 -154 -618 -175 -86 -9 -356 -9 -450 0
-130 13 -330 59 -470 110 -373 135 -705 382 -937 696 -30 41 -51 78 -46 82 4
4 123 73 263 154 140 80 262 150 270 155 8 6 101 59 205 120 105 60 232 134
284 164 l94 55 72 -62 c40 -34 111 -80 157 -103z"/>
</g>
</svg>
